<mxfile host="app.diagrams.net" modified="2022-03-14T03:47:25.763Z" agent="5.0 (Windows NT 10.0; WOW64) AppleWebKit/537.36 (KHTML, like Gecko) Chrome/70.0.3538.25 Safari/537.36 Core/1.70.3883.400 QQBrowser/10.8.4559.400" etag="ntQHViTPuGNE0BvJl2Gd" version="16.4.3" type="github">
  <diagram id="mgv2ylvD_XQzCb-_KODL" name="Page-1">
    <mxGraphModel dx="1422" dy="813" grid="1" gridSize="10" guides="1" tooltips="1" connect="1" arrows="1" fold="1" page="1" pageScale="1" pageWidth="827" pageHeight="1169" math="0" shadow="0">
      <root>
        <mxCell id="0" />
        <mxCell id="1" parent="0" />
        <mxCell id="SaPh2zSbcyw4TlKx-Lw8-1" value="" style="shape=curlyBracket;whiteSpace=wrap;html=1;rounded=1;" vertex="1" parent="1">
          <mxGeometry x="220" y="160" width="20" height="520" as="geometry" />
        </mxCell>
        <mxCell id="SaPh2zSbcyw4TlKx-Lw8-2" value="" style="endArrow=none;html=1;rounded=0;strokeWidth=2;" edge="1" parent="1">
          <mxGeometry width="50" height="50" relative="1" as="geometry">
            <mxPoint x="400" y="170" as="sourcePoint" />
            <mxPoint x="460" y="170" as="targetPoint" />
          </mxGeometry>
        </mxCell>
        <mxCell id="SaPh2zSbcyw4TlKx-Lw8-5" value="&lt;font style=&quot;font-size: 15px;&quot;&gt;x&lt;/font&gt;" style="edgeLabel;html=1;align=center;verticalAlign=middle;resizable=0;points=[];fontSize=15;" vertex="1" connectable="0" parent="SaPh2zSbcyw4TlKx-Lw8-2">
          <mxGeometry x="0.3667" relative="1" as="geometry">
            <mxPoint as="offset" />
          </mxGeometry>
        </mxCell>
        <mxCell id="SaPh2zSbcyw4TlKx-Lw8-3" value="" style="endArrow=none;html=1;rounded=0;strokeWidth=2;" edge="1" parent="1">
          <mxGeometry width="50" height="50" relative="1" as="geometry">
            <mxPoint x="470" y="190" as="sourcePoint" />
            <mxPoint x="550" y="190" as="targetPoint" />
          </mxGeometry>
        </mxCell>
        <mxCell id="SaPh2zSbcyw4TlKx-Lw8-6" value="y" style="edgeLabel;html=1;align=center;verticalAlign=middle;resizable=0;points=[];fontSize=16;" vertex="1" connectable="0" parent="SaPh2zSbcyw4TlKx-Lw8-3">
          <mxGeometry x="0.4" relative="1" as="geometry">
            <mxPoint as="offset" />
          </mxGeometry>
        </mxCell>
        <mxCell id="SaPh2zSbcyw4TlKx-Lw8-4" value="&lt;font style=&quot;font-size: 16px&quot;&gt;x before y,&lt;/font&gt;" style="text;strokeColor=none;fillColor=none;html=1;fontSize=24;fontStyle=1;verticalAlign=middle;align=center;" vertex="1" parent="1">
          <mxGeometry x="240" y="160" width="140" height="40" as="geometry" />
        </mxCell>
        <mxCell id="SaPh2zSbcyw4TlKx-Lw8-7" value="&lt;font style=&quot;font-size: 16px&quot;&gt;x equal y,&lt;/font&gt;" style="text;strokeColor=none;fillColor=none;html=1;fontSize=24;fontStyle=1;verticalAlign=middle;align=center;" vertex="1" parent="1">
          <mxGeometry x="240" y="240" width="140" height="40" as="geometry" />
        </mxCell>
        <mxCell id="SaPh2zSbcyw4TlKx-Lw8-8" value="" style="endArrow=none;html=1;rounded=0;strokeWidth=2;" edge="1" parent="1">
          <mxGeometry width="50" height="50" relative="1" as="geometry">
            <mxPoint x="400" y="250" as="sourcePoint" />
            <mxPoint x="460" y="250" as="targetPoint" />
            <Array as="points">
              <mxPoint x="420" y="250" />
            </Array>
          </mxGeometry>
        </mxCell>
        <mxCell id="SaPh2zSbcyw4TlKx-Lw8-9" value="&lt;font style=&quot;font-size: 15px;&quot;&gt;x&lt;/font&gt;" style="edgeLabel;html=1;align=center;verticalAlign=middle;resizable=0;points=[];fontSize=15;" vertex="1" connectable="0" parent="SaPh2zSbcyw4TlKx-Lw8-8">
          <mxGeometry x="0.3667" relative="1" as="geometry">
            <mxPoint as="offset" />
          </mxGeometry>
        </mxCell>
        <mxCell id="SaPh2zSbcyw4TlKx-Lw8-10" value="" style="endArrow=none;html=1;rounded=0;strokeWidth=2;" edge="1" parent="1">
          <mxGeometry width="50" height="50" relative="1" as="geometry">
            <mxPoint x="400" y="270" as="sourcePoint" />
            <mxPoint x="460" y="270" as="targetPoint" />
          </mxGeometry>
        </mxCell>
        <mxCell id="SaPh2zSbcyw4TlKx-Lw8-11" value="y" style="edgeLabel;html=1;align=center;verticalAlign=middle;resizable=0;points=[];fontSize=16;" vertex="1" connectable="0" parent="SaPh2zSbcyw4TlKx-Lw8-10">
          <mxGeometry x="0.4" relative="1" as="geometry">
            <mxPoint as="offset" />
          </mxGeometry>
        </mxCell>
        <mxCell id="SaPh2zSbcyw4TlKx-Lw8-12" value="&lt;font style=&quot;font-size: 16px&quot;&gt;x meets y,&lt;/font&gt;" style="text;strokeColor=none;fillColor=none;html=1;fontSize=24;fontStyle=1;verticalAlign=middle;align=center;" vertex="1" parent="1">
          <mxGeometry x="240" y="320" width="140" height="40" as="geometry" />
        </mxCell>
        <mxCell id="SaPh2zSbcyw4TlKx-Lw8-13" value="" style="endArrow=none;html=1;rounded=0;strokeWidth=2;" edge="1" parent="1">
          <mxGeometry width="50" height="50" relative="1" as="geometry">
            <mxPoint x="400" y="330" as="sourcePoint" />
            <mxPoint x="460" y="330" as="targetPoint" />
            <Array as="points">
              <mxPoint x="420" y="330" />
            </Array>
          </mxGeometry>
        </mxCell>
        <mxCell id="SaPh2zSbcyw4TlKx-Lw8-14" value="&lt;font style=&quot;font-size: 15px;&quot;&gt;x&lt;/font&gt;" style="edgeLabel;html=1;align=center;verticalAlign=middle;resizable=0;points=[];fontSize=15;" vertex="1" connectable="0" parent="SaPh2zSbcyw4TlKx-Lw8-13">
          <mxGeometry x="0.3667" relative="1" as="geometry">
            <mxPoint as="offset" />
          </mxGeometry>
        </mxCell>
        <mxCell id="SaPh2zSbcyw4TlKx-Lw8-15" value="" style="endArrow=none;html=1;rounded=0;strokeWidth=2;" edge="1" parent="1">
          <mxGeometry width="50" height="50" relative="1" as="geometry">
            <mxPoint x="460" y="350" as="sourcePoint" />
            <mxPoint x="540" y="350" as="targetPoint" />
          </mxGeometry>
        </mxCell>
        <mxCell id="SaPh2zSbcyw4TlKx-Lw8-16" value="y" style="edgeLabel;html=1;align=center;verticalAlign=middle;resizable=0;points=[];fontSize=16;" vertex="1" connectable="0" parent="SaPh2zSbcyw4TlKx-Lw8-15">
          <mxGeometry x="0.4" relative="1" as="geometry">
            <mxPoint as="offset" />
          </mxGeometry>
        </mxCell>
        <mxCell id="SaPh2zSbcyw4TlKx-Lw8-17" value="&lt;font style=&quot;font-size: 16px&quot;&gt;x overlaps y,&lt;/font&gt;" style="text;strokeColor=none;fillColor=none;html=1;fontSize=24;fontStyle=1;verticalAlign=middle;align=center;" vertex="1" parent="1">
          <mxGeometry x="240" y="400" width="140" height="40" as="geometry" />
        </mxCell>
        <mxCell id="SaPh2zSbcyw4TlKx-Lw8-18" value="" style="endArrow=none;html=1;rounded=0;strokeWidth=2;" edge="1" parent="1">
          <mxGeometry width="50" height="50" relative="1" as="geometry">
            <mxPoint x="400" y="410" as="sourcePoint" />
            <mxPoint x="460" y="410" as="targetPoint" />
            <Array as="points">
              <mxPoint x="420" y="410" />
            </Array>
          </mxGeometry>
        </mxCell>
        <mxCell id="SaPh2zSbcyw4TlKx-Lw8-19" value="&lt;font style=&quot;font-size: 15px;&quot;&gt;x&lt;/font&gt;" style="edgeLabel;html=1;align=center;verticalAlign=middle;resizable=0;points=[];fontSize=15;" vertex="1" connectable="0" parent="SaPh2zSbcyw4TlKx-Lw8-18">
          <mxGeometry x="0.3667" relative="1" as="geometry">
            <mxPoint as="offset" />
          </mxGeometry>
        </mxCell>
        <mxCell id="SaPh2zSbcyw4TlKx-Lw8-20" value="" style="endArrow=none;html=1;rounded=0;strokeWidth=2;" edge="1" parent="1">
          <mxGeometry width="50" height="50" relative="1" as="geometry">
            <mxPoint x="440" y="430" as="sourcePoint" />
            <mxPoint x="520" y="430" as="targetPoint" />
          </mxGeometry>
        </mxCell>
        <mxCell id="SaPh2zSbcyw4TlKx-Lw8-21" value="y" style="edgeLabel;html=1;align=center;verticalAlign=middle;resizable=0;points=[];fontSize=16;" vertex="1" connectable="0" parent="SaPh2zSbcyw4TlKx-Lw8-20">
          <mxGeometry x="0.4" relative="1" as="geometry">
            <mxPoint as="offset" />
          </mxGeometry>
        </mxCell>
        <mxCell id="SaPh2zSbcyw4TlKx-Lw8-22" value="&lt;font style=&quot;font-size: 16px&quot;&gt;x during y,&lt;/font&gt;" style="text;strokeColor=none;fillColor=none;html=1;fontSize=24;fontStyle=1;verticalAlign=middle;align=center;" vertex="1" parent="1">
          <mxGeometry x="240" y="480" width="140" height="40" as="geometry" />
        </mxCell>
        <mxCell id="SaPh2zSbcyw4TlKx-Lw8-23" value="" style="endArrow=none;html=1;rounded=0;strokeWidth=2;" edge="1" parent="1">
          <mxGeometry width="50" height="50" relative="1" as="geometry">
            <mxPoint x="410" y="490" as="sourcePoint" />
            <mxPoint x="470" y="490" as="targetPoint" />
            <Array as="points">
              <mxPoint x="430" y="490" />
            </Array>
          </mxGeometry>
        </mxCell>
        <mxCell id="SaPh2zSbcyw4TlKx-Lw8-24" value="&lt;font style=&quot;font-size: 15px;&quot;&gt;x&lt;/font&gt;" style="edgeLabel;html=1;align=center;verticalAlign=middle;resizable=0;points=[];fontSize=15;" vertex="1" connectable="0" parent="SaPh2zSbcyw4TlKx-Lw8-23">
          <mxGeometry x="0.3667" relative="1" as="geometry">
            <mxPoint as="offset" />
          </mxGeometry>
        </mxCell>
        <mxCell id="SaPh2zSbcyw4TlKx-Lw8-25" value="" style="endArrow=none;html=1;rounded=0;strokeWidth=2;" edge="1" parent="1">
          <mxGeometry width="50" height="50" relative="1" as="geometry">
            <mxPoint x="400" y="510" as="sourcePoint" />
            <mxPoint x="480" y="510" as="targetPoint" />
          </mxGeometry>
        </mxCell>
        <mxCell id="SaPh2zSbcyw4TlKx-Lw8-26" value="y" style="edgeLabel;html=1;align=center;verticalAlign=middle;resizable=0;points=[];fontSize=16;" vertex="1" connectable="0" parent="SaPh2zSbcyw4TlKx-Lw8-25">
          <mxGeometry x="0.4" relative="1" as="geometry">
            <mxPoint as="offset" />
          </mxGeometry>
        </mxCell>
        <mxCell id="SaPh2zSbcyw4TlKx-Lw8-27" value="&lt;font style=&quot;font-size: 16px&quot;&gt;x starts y,&lt;/font&gt;" style="text;strokeColor=none;fillColor=none;html=1;fontSize=24;fontStyle=1;verticalAlign=middle;align=center;" vertex="1" parent="1">
          <mxGeometry x="240" y="560" width="140" height="40" as="geometry" />
        </mxCell>
        <mxCell id="SaPh2zSbcyw4TlKx-Lw8-28" value="&lt;font style=&quot;font-size: 16px&quot;&gt;x finishes y,&lt;/font&gt;" style="text;strokeColor=none;fillColor=none;html=1;fontSize=24;fontStyle=1;verticalAlign=middle;align=center;" vertex="1" parent="1">
          <mxGeometry x="240" y="640" width="140" height="40" as="geometry" />
        </mxCell>
        <mxCell id="SaPh2zSbcyw4TlKx-Lw8-29" value="" style="endArrow=none;html=1;rounded=0;strokeWidth=2;" edge="1" parent="1">
          <mxGeometry width="50" height="50" relative="1" as="geometry">
            <mxPoint x="400" y="570" as="sourcePoint" />
            <mxPoint x="460" y="570" as="targetPoint" />
            <Array as="points">
              <mxPoint x="420" y="570" />
            </Array>
          </mxGeometry>
        </mxCell>
        <mxCell id="SaPh2zSbcyw4TlKx-Lw8-30" value="&lt;font style=&quot;font-size: 15px;&quot;&gt;x&lt;/font&gt;" style="edgeLabel;html=1;align=center;verticalAlign=middle;resizable=0;points=[];fontSize=15;" vertex="1" connectable="0" parent="SaPh2zSbcyw4TlKx-Lw8-29">
          <mxGeometry x="0.3667" relative="1" as="geometry">
            <mxPoint as="offset" />
          </mxGeometry>
        </mxCell>
        <mxCell id="SaPh2zSbcyw4TlKx-Lw8-31" value="" style="endArrow=none;html=1;rounded=0;strokeWidth=2;" edge="1" parent="1">
          <mxGeometry width="50" height="50" relative="1" as="geometry">
            <mxPoint x="400" y="590" as="sourcePoint" />
            <mxPoint x="480" y="590" as="targetPoint" />
          </mxGeometry>
        </mxCell>
        <mxCell id="SaPh2zSbcyw4TlKx-Lw8-32" value="y" style="edgeLabel;html=1;align=center;verticalAlign=middle;resizable=0;points=[];fontSize=16;" vertex="1" connectable="0" parent="SaPh2zSbcyw4TlKx-Lw8-31">
          <mxGeometry x="0.4" relative="1" as="geometry">
            <mxPoint as="offset" />
          </mxGeometry>
        </mxCell>
        <mxCell id="SaPh2zSbcyw4TlKx-Lw8-33" value="" style="endArrow=none;html=1;rounded=0;strokeWidth=2;" edge="1" parent="1">
          <mxGeometry width="50" height="50" relative="1" as="geometry">
            <mxPoint x="420" y="650" as="sourcePoint" />
            <mxPoint x="480" y="650" as="targetPoint" />
            <Array as="points">
              <mxPoint x="440" y="650" />
            </Array>
          </mxGeometry>
        </mxCell>
        <mxCell id="SaPh2zSbcyw4TlKx-Lw8-34" value="&lt;font style=&quot;font-size: 15px;&quot;&gt;x&lt;/font&gt;" style="edgeLabel;html=1;align=center;verticalAlign=middle;resizable=0;points=[];fontSize=15;" vertex="1" connectable="0" parent="SaPh2zSbcyw4TlKx-Lw8-33">
          <mxGeometry x="0.3667" relative="1" as="geometry">
            <mxPoint as="offset" />
          </mxGeometry>
        </mxCell>
        <mxCell id="SaPh2zSbcyw4TlKx-Lw8-35" value="" style="endArrow=none;html=1;rounded=0;strokeWidth=2;" edge="1" parent="1">
          <mxGeometry width="50" height="50" relative="1" as="geometry">
            <mxPoint x="400" y="670" as="sourcePoint" />
            <mxPoint x="480" y="670" as="targetPoint" />
          </mxGeometry>
        </mxCell>
        <mxCell id="SaPh2zSbcyw4TlKx-Lw8-36" value="y" style="edgeLabel;html=1;align=center;verticalAlign=middle;resizable=0;points=[];fontSize=16;" vertex="1" connectable="0" parent="SaPh2zSbcyw4TlKx-Lw8-35">
          <mxGeometry x="0.4" relative="1" as="geometry">
            <mxPoint as="offset" />
          </mxGeometry>
        </mxCell>
        <mxCell id="SaPh2zSbcyw4TlKx-Lw8-38" value="" style="endArrow=none;dashed=1;html=1;dashPattern=1 3;strokeWidth=2;rounded=0;fontSize=15;" edge="1" parent="1">
          <mxGeometry width="50" height="50" relative="1" as="geometry">
            <mxPoint x="460" y="190" as="sourcePoint" />
            <mxPoint x="460" y="170" as="targetPoint" />
          </mxGeometry>
        </mxCell>
        <mxCell id="SaPh2zSbcyw4TlKx-Lw8-39" value="" style="endArrow=none;dashed=1;html=1;dashPattern=1 3;strokeWidth=2;rounded=0;fontSize=15;" edge="1" parent="1">
          <mxGeometry width="50" height="50" relative="1" as="geometry">
            <mxPoint x="400" y="270" as="sourcePoint" />
            <mxPoint x="400" y="250" as="targetPoint" />
          </mxGeometry>
        </mxCell>
        <mxCell id="SaPh2zSbcyw4TlKx-Lw8-40" value="" style="endArrow=none;dashed=1;html=1;dashPattern=1 3;strokeWidth=2;rounded=0;fontSize=15;" edge="1" parent="1">
          <mxGeometry width="50" height="50" relative="1" as="geometry">
            <mxPoint x="460" y="270" as="sourcePoint" />
            <mxPoint x="460" y="250" as="targetPoint" />
          </mxGeometry>
        </mxCell>
        <mxCell id="SaPh2zSbcyw4TlKx-Lw8-41" value="" style="endArrow=none;dashed=1;html=1;dashPattern=1 3;strokeWidth=2;rounded=0;fontSize=15;" edge="1" parent="1">
          <mxGeometry width="50" height="50" relative="1" as="geometry">
            <mxPoint x="460" y="350" as="sourcePoint" />
            <mxPoint x="460" y="330" as="targetPoint" />
          </mxGeometry>
        </mxCell>
        <mxCell id="SaPh2zSbcyw4TlKx-Lw8-42" value="" style="endArrow=none;dashed=1;html=1;dashPattern=1 3;strokeWidth=2;rounded=0;fontSize=15;" edge="1" parent="1">
          <mxGeometry width="50" height="50" relative="1" as="geometry">
            <mxPoint x="460" y="430" as="sourcePoint" />
            <mxPoint x="460" y="410" as="targetPoint" />
          </mxGeometry>
        </mxCell>
        <mxCell id="SaPh2zSbcyw4TlKx-Lw8-43" value="" style="endArrow=none;dashed=1;html=1;dashPattern=1 3;strokeWidth=2;rounded=0;fontSize=15;" edge="1" parent="1">
          <mxGeometry width="50" height="50" relative="1" as="geometry">
            <mxPoint x="440" y="430" as="sourcePoint" />
            <mxPoint x="440" y="410" as="targetPoint" />
          </mxGeometry>
        </mxCell>
        <mxCell id="SaPh2zSbcyw4TlKx-Lw8-44" value="" style="endArrow=none;dashed=1;html=1;dashPattern=1 3;strokeWidth=2;rounded=0;fontSize=15;" edge="1" parent="1">
          <mxGeometry width="50" height="50" relative="1" as="geometry">
            <mxPoint x="470" y="510" as="sourcePoint" />
            <mxPoint x="470" y="490" as="targetPoint" />
          </mxGeometry>
        </mxCell>
        <mxCell id="SaPh2zSbcyw4TlKx-Lw8-45" value="" style="endArrow=none;dashed=1;html=1;dashPattern=1 3;strokeWidth=2;rounded=0;fontSize=15;" edge="1" parent="1">
          <mxGeometry width="50" height="50" relative="1" as="geometry">
            <mxPoint x="410" y="510" as="sourcePoint" />
            <mxPoint x="410" y="490" as="targetPoint" />
          </mxGeometry>
        </mxCell>
        <mxCell id="SaPh2zSbcyw4TlKx-Lw8-46" value="" style="endArrow=none;dashed=1;html=1;dashPattern=1 3;strokeWidth=2;rounded=0;fontSize=15;" edge="1" parent="1">
          <mxGeometry width="50" height="50" relative="1" as="geometry">
            <mxPoint x="460" y="590" as="sourcePoint" />
            <mxPoint x="460" y="570" as="targetPoint" />
          </mxGeometry>
        </mxCell>
        <mxCell id="SaPh2zSbcyw4TlKx-Lw8-47" value="" style="endArrow=none;dashed=1;html=1;dashPattern=1 3;strokeWidth=2;rounded=0;fontSize=15;" edge="1" parent="1">
          <mxGeometry width="50" height="50" relative="1" as="geometry">
            <mxPoint x="400" y="590" as="sourcePoint" />
            <mxPoint x="400" y="570" as="targetPoint" />
          </mxGeometry>
        </mxCell>
        <mxCell id="SaPh2zSbcyw4TlKx-Lw8-48" value="" style="endArrow=none;dashed=1;html=1;dashPattern=1 3;strokeWidth=2;rounded=0;fontSize=15;" edge="1" parent="1">
          <mxGeometry width="50" height="50" relative="1" as="geometry">
            <mxPoint x="480" y="670" as="sourcePoint" />
            <mxPoint x="480" y="650" as="targetPoint" />
          </mxGeometry>
        </mxCell>
        <mxCell id="SaPh2zSbcyw4TlKx-Lw8-49" value="" style="endArrow=none;dashed=1;html=1;dashPattern=1 3;strokeWidth=2;rounded=0;fontSize=15;" edge="1" parent="1">
          <mxGeometry width="50" height="50" relative="1" as="geometry">
            <mxPoint x="420" y="670" as="sourcePoint" />
            <mxPoint x="420" y="650" as="targetPoint" />
          </mxGeometry>
        </mxCell>
      </root>
    </mxGraphModel>
  </diagram>
</mxfile>
